PathFileType	4	(X/Y/Z)	S01_0001_Static_markers.trc
DataRate	CameraRate	NumFrames	NumMarkers	Units	OrigDataRate	OrigDataStartFrame	OrigNumFrames
250.000000	250.000000	4	62	mm	250.000000	25	102
Frame#	Time	HEAD_ANT			R_HEAD			L_HEAD			C7			R_BACK			L_BACK			STERNUM			R_ACROMION			R_HUM_PROX			R_HUM_ANT			R_HUM_POST			R_ELBOW_LAT			R_ELBOW_MED			R_FOREARM			R_WIRST_LAT			R_WRITS_MED			R_HAND			L_ACROMION			L_HUM_PROX			L_HUM_ANT			L_HUM_POST			L_ELBOW_LAT			L_ELBOW_MED			L_FOREARM			L_WRIST_LAT			L_WIRST_MED			L_HAND			R_ILIAC			SACRUM			L_ILIAC			R_GTROCH			R_THIGH__1			R_THIGH_2			R_THIGH_3			R_THIGH_4			R_KNEE_LAT			R_KNEE_MED			R_SHANK_1			R_SHANK_2			R_SHANK_3			R_SHANK_4			R_ANKLE_LAT			R_ANKLE_MED			R_HEEL			R_FOOT_LAT			R_FOOT_MED			L_GTROCH			L_THIGH_1			L_THIGH_2			L_THIGH_3			L_THIGH_4			L_KNEE_LAT			L_KNEE_MED			L_SHANK_1			L_SHANK_2			L_SHANK_3			L_SHANK_4			L_ANKLE_LAT			L_ANKLE_MED			L_HEEL			L_FOOT_LAT			L_FOOT_MED			
		X1	Y1	Z1	X2	Y2	Z2	X3	Y3	Z3	X4	Y4	Z4	X5	Y5	Z5	X6	Y6	Z6	X7	Y7	Z7	X8	Y8	Z8	X9	Y9	Z9	X10	Y10	Z10	X11	Y11	Z11	X12	Y12	Z12	X13	Y13	Z13	X14	Y14	Z14	X15	Y15	Z15	X16	Y16	Z16	X17	Y17	Z17	X18	Y18	Z18	X19	Y19	Z19	X20	Y20	Z20	X21	Y21	Z21	X22	Y22	Z22	X23	Y23	Z23	X24	Y24	Z24	X25	Y25	Z25	X26	Y26	Z26	X27	Y27	Z27	X28	Y28	Z28	X29	Y29	Z29	X30	Y30	Z30	X31	Y31	Z31	X32	Y32	Z32	X33	Y33	Z33	X34	Y34	Z34	X35	Y35	Z35	X36	Y36	Z36	X37	Y37	Z37	X38	Y38	Z38	X39	Y39	Z39	X40	Y40	Z40	X41	Y41	Z41	X42	Y42	Z42	X43	Y43	Z43	X44	Y44	Z44	X45	Y45	Z45	X46	Y46	Z46	X47	Y47	Z47	X48	Y48	Z48	X49	Y49	Z49	X50	Y50	Z50	X51	Y51	Z51	X52	Y52	Z52	X53	Y53	Z53	X54	Y54	Z54	X55	Y55	Z55	X56	Y56	Z56	X57	Y57	Z57	X58	Y58	Z58	X59	Y59	Z59	X60	Y60	Z60	X61	Y61	Z61	X62	Y62	Z62	

26	0.1	438.661376953125	451.343017578125	1740.04345703125	509.5433044433594	383.5159301757812	1699.060913085938	363.2431945800781	395.644287109375	1700.43798828125	425.7622985839844	242.8088989257812	1534.03515625	493.5109558105469	169.4062805175781	1337.207641601562	353.111572265625	173.5984954833984	1338.203979492188	439.0668640136719	420.5403747558594	1373.511108398438	598.005859375	308.2809143066406	1493.210571289062	704.0697631835938	263.5149536132812	1351.061157226562	735.3212280273438	327.8485717773438	1273.92529296875	721.7428588867188	206.1068725585938	1266.740112304688	758.8937377929688	256.3482055664062	1170.171264648438	679.1492919921875	251.94873046875	1148.779174804688	828.4873046875	348.8335571289062	997.752197265625	821.3583984375	395.9474792480469	930.92529296875	833.2662963867188	320.0666198730469	906.509033203125	881.1171875	382.8063659667969	848.7427978515625	264.624267578125	323.1812744140625	1493.080932617188	162.9566345214844	293.129638671875	1333.447021484375	148.3966217041016	358.5108947753906	1257.024291992188	141.7472991943359	236.3915863037109	1254.900756835938	114.4887084960938	287.6135864257812	1156.809448242188	182.5747833251953	259.9466857910156	1146.353393554688	68.70771789550781	390.8076171875	986.1781005859375	95.47010040283203	439.0269775390625	919.8295288085938	54.61314392089844	372.1554870605469	905.13330078125	32.86472320556641	443.6762084960938	848.6366577148438	604.9105224609375	320.0471496582031	1081.917236328125	434.5325927734375	188.403076171875	1061.722900390625	258.95751953125	317.2120971679688	1076.156127929688	613.7655029296875	264.7225036621094	942.2114868164062	617.16943359375	272.6824645996094	664.0104370117188	622.7753295898438	330.4738159179688	674.3784790039062	595.7583618164062	325.8541259765625	570.5255737304688	601.637939453125	261.8546142578125	583.4393920898438	589.5936279296875	299.6045532226562	508.9315795898438	478.4712524414062	301.8621826171875	506.8351135253906	622.041748046875	238.9523620605469	353.3118896484375	607.7616577148438	294.5919494628906	332.0559997558594	593.76953125	291.7937316894531	246.655517578125	603.2224731445312	227.6644897460938	252.8738861083984	581.6546020507812	252.8989868164062	65.91033935546875	496.0886535644531	275.0302734375	80.88001251220703	527.7762451171875	194.1438293457031	41.9051513671875	628.8353271484375	352.2330627441406	19.95573043823242	532.5468139648438	415.0338745117188	30.16290664672852	254.3539428710938	271.135986328125	965.4827270507812	251.3620300292969	322.9312133789062	674.5794067382812	238.6877593994141	270.9101257324219	700.9784545898438	264.8492126464844	247.5328369140625	600.8282470703125	270.6923217773438	310.6559448242188	595.8115844726562	282.8313903808594	268.5416564941406	514.123779296875	390.3028869628906	273.0359802246094	501.574951171875	255.6940307617188	249.1447296142578	339.0177307128906	258.0292358398438	191.8758544921875	318.1172790527344	268.1487121582031	191.6467895507812	231.1627807617188	269.3299865722656	255.9214477539062	236.8712768554688	276.4191284179688	217.1695861816406	69.11963653564453	361.0969543457031	243.4593048095703	79.47764587402344	329.2639770507812	160.8660888671875	41.06904220581055	233.6536865234375	328.0791931152344	19.2287483215332	335.6317138671875	376.6856079101562	27.1198616027832	
27	0.104	438.6829223632812	451.3236083984375	1740.048950195312	509.5470886230469	383.5009155273438	1699.079956054688	363.2186279296875	395.6122741699219	1700.457275390625	425.7193298339844	242.8275756835938	1534.004150390625	493.5304260253906	169.4599151611328	1337.226440429688	353.1476745605469	173.6242218017578	1338.167114257812	439.0728454589844	420.5309143066406	1373.531982421875	598.0025634765625	308.2859191894531	1493.263061523438	704.06201171875	263.5727844238281	1351.1025390625	735.3251342773438	327.8525085449219	1273.948974609375	721.68603515625	206.1896514892578	1266.74267578125	758.8896484375	256.4014587402344	1170.182495117188	679.1162109375	251.9762573242188	1148.798583984375	828.4879760742188	348.9064331054688	997.7940673828125	821.3387451171875	395.9667358398438	930.9421997070312	833.2642822265625	320.1134033203125	906.5339965820312	881.1055908203125	382.8515319824219	848.75390625	264.620361328125	323.1732177734375	1493.068115234375	162.9441375732422	293.0917663574219	1333.421752929688	148.3731231689453	358.4262390136719	1256.988525390625	141.8089447021484	236.3456878662109	1254.845092773438	114.5206604003906	287.5304870605469	1156.752197265625	182.6462097167969	259.8757934570312	1146.31787109375	68.72526550292969	390.7037658691406	986.1159057617188	95.51759338378906	438.93701171875	919.7550659179688	54.66777420043945	372.0576171875	905.0440063476562	32.87920379638672	443.5375366210938	848.5565185546875	604.9203491210938	320.1032104492188	1081.909057617188	434.5184631347656	188.4395294189453	1061.729370117188	258.9524841308594	317.2055969238281	1076.15771484375	613.7710571289062	264.7268676757812	942.2282104492188	617.1840209960938	272.6580200195312	664.0234985351562	622.7708740234375	330.4149169921875	674.3610229492188	595.7925415039062	325.8370361328125	570.5154418945312	601.637451171875	261.8235473632812	583.40869140625	589.6116333007812	299.550048828125	508.90576171875	478.4689025878906	301.8390197753906	506.8100891113281	622.03857421875	238.8862457275391	353.3381958007812	607.7760009765625	294.5254821777344	332.0419921875	593.792724609375	291.7863159179688	246.6547088623047	603.1821899414062	227.6658325195312	252.8643646240234	581.6609497070312	252.9176940917969	65.94784545898438	496.0908813476562	275.0342407226562	80.8836669921875	527.7608642578125	194.1506652832031	41.9014892578125	628.8438110351562	352.2144775390625	19.92433547973633	532.5325317382812	415.054931640625	30.16103744506836	254.3464660644531	271.1522827148438	965.4778442382812	251.384521484375	323.01220703125	674.5665893554688	238.6144714355469	271.2052612304688	700.9873046875	264.8532104492188	247.5311431884766	600.8045654296875	270.6949462890625	310.6470031738281	595.810791015625	282.8501281738281	268.5443420410156	514.1035766601562	390.3470458984375	273.0191955566406	501.5513305664062	255.6949462890625	249.1671752929688	339.0101318359375	258.0309753417969	191.8979644775391	318.1197509765625	268.17041015625	191.6416320800781	231.1637725830078	269.3719177246094	255.9195098876953	236.8493194580078	276.3931579589844	217.1771850585938	69.13468933105469	361.0933227539062	243.4976043701172	79.49987030029297	329.2397766113281	160.88427734375	41.09384155273438	233.668701171875	328.0884399414062	19.19869422912598	335.6419982910156	376.6676635742188	27.10490989685059	
28	0.108	438.6899719238281	451.3306274414062	1740.047485351562	509.5189208984375	383.427490234375	1699.102294921875	363.2195129394531	395.6097717285156	1700.46240234375	425.7289123535156	242.8331451416016	1534.05078125	493.5599975585938	169.5099334716797	1337.208740234375	353.1766052246094	173.6134033203125	1338.144287109375	439.0570068359375	420.597900390625	1373.56787109375	597.9894409179688	308.2995910644531	1493.272338867188	704.0499877929688	263.5904541015625	1351.126586914062	735.3191528320312	327.9003601074219	1273.975708007812	721.681884765625	206.2061920166016	1266.756103515625	758.86572265625	256.4346313476562	1170.224853515625	679.1024169921875	252.0710296630859	1148.803100585938	828.4981079101562	348.9385070800781	997.7830810546875	821.3298950195312	396.0211486816406	930.9539184570312	833.2930297851562	320.1828308105469	906.5513916015625	881.1144409179688	382.9022521972656	848.818359375	264.5974426269531	323.1573486328125	1493.063110351562	162.987548828125	293.027099609375	1333.366088867188	148.3991546630859	358.3592529296875	1256.947875976562	141.8925018310547	236.2481079101562	1254.771606445312	114.5539093017578	287.4915771484375	1156.637329101562	182.7427215576172	259.8274230957031	1146.294799804688	68.74385833740234	390.581787109375	986.058837890625	95.49492645263672	438.8670959472656	919.7169799804688	54.70678329467773	371.9976806640625	905.0031127929688	32.88347625732422	443.4474487304688	848.4796752929688	604.90087890625	320.161865234375	1081.91748046875	434.48486328125	188.4520568847656	1061.750610351562	258.9293823242188	317.3351440429688	1076.170532226562	613.1325073242188	265.0357971191406	942.0113525390625	617.1751708984375	272.6277465820312	664.01953125	622.802734375	330.4107971191406	674.3828125	595.8154296875	325.7769775390625	570.49658203125	601.6317749023438	261.8193664550781	583.4176635742188	589.605712890625	299.5632934570312	508.8812866210938	478.4973754882812	301.7294921875	506.7886047363281	622.007568359375	238.8831329345703	353.309326171875	607.77099609375	294.5093994140625	332.0585632324219	593.7810668945312	291.7833251953125	246.6570587158203	603.1873168945312	227.6451263427734	252.8267669677734	581.6585083007812	252.9046936035156	65.93044281005859	496.1053466796875	275.0051879882812	80.887939453125	527.7666625976562	194.1355743408203	41.91735076904297	628.8385009765625	352.243896484375	19.94843673706055	532.50732421875	415.0334777832031	30.16082000732422	254.3436126708984	271.1983032226562	965.4744262695312	251.3762817382812	322.9893798828125	674.565673828125	238.6077270507812	271.2816162109375	700.9882202148438	264.8315124511719	247.5833282470703	600.7930297851562	270.6953735351562	310.6843872070312	595.8021240234375	282.8231811523438	268.5649719238281	514.1327514648438	390.3511962890625	272.9786987304688	501.5548095703125	255.676513671875	249.204345703125	339.0014038085938	258.0191040039062	191.9289855957031	318.1053161621094	268.1743469238281	191.6681976318359	231.1327514648438	269.4653015136719	256.0875549316406	236.8420562744141	276.4149475097656	217.1876220703125	69.14775848388672	361.0743713378906	243.5133056640625	79.49342346191406	329.2594909667969	160.8861389160156	41.09489440917969	233.6807098388672	328.0706176757812	19.20910263061523	335.6323547363281	376.6865234375	27.09909820556641	
29	0.112	438.6837768554688	451.2919616699219	1740.076171875	509.5324096679688	383.3912048339844	1699.104248046875	363.2052307128906	395.5852355957031	1700.492553710938	425.7035827636719	242.7987670898438	1534.010131835938	493.595947265625	169.6019134521484	1337.201171875	353.1838989257812	173.6522674560547	1338.13427734375	439.0298156738281	420.611328125	1373.583129882812	597.971923828125	308.3052673339844	1493.3173828125	704.0447998046875	263.6197814941406	1351.176025390625	735.3655395507812	327.9116516113281	1274.019775390625	721.6516723632812	206.2649993896484	1266.767211914062	758.8870239257812	256.5052185058594	1170.245239257812	679.1195678710938	252.0455017089844	1148.843627929688	828.4724731445312	348.9953002929688	997.8250732421875	821.2913208007812	396.0783081054688	930.97314453125	833.2615966796875	320.2633972167969	906.5715942382812	881.1243286132812	382.9640197753906	848.8442993164062	264.5773620605469	323.1368713378906	1493.034790039062	163.0831909179688	293.1083679199219	1333.54443359375	148.3646545410156	358.3020935058594	1256.914916992188	141.9451293945312	236.1875762939453	1254.707641601562	114.6325302124023	287.4093017578125	1156.594604492188	182.7713775634766	259.8739013671875	1146.236083984375	68.77524566650391	390.481201171875	985.9822998046875	95.51248168945312	438.7958679199219	919.6669921875	54.73681640625	371.9080200195312	904.9566650390625	32.89597320556641	443.3681335449219	848.43994140625	604.9019775390625	320.1511535644531	1081.909545898438	434.4641418457031	188.4750518798828	1061.774169921875	258.9252319335938	317.3545532226562	1076.170532226562	613.7420654296875	264.6776123046875	942.2107543945312	617.1710205078125	272.6015625	664.0299682617188	622.7828979492188	330.4017639160156	674.3502807617188	595.78466796875	325.766845703125	570.5032348632812	601.6184692382812	261.7775268554688	583.4232177734375	589.5992431640625	299.5035095214844	508.8901672363281	478.4925231933594	301.6888427734375	506.7895812988281	622.0319213867188	238.875244140625	353.3161010742188	607.7885131835938	294.5100708007812	332.0564880371094	593.802001953125	291.7879943847656	246.6624755859375	603.2175903320312	227.6585083007812	252.8629302978516	581.6739501953125	252.9481048583984	65.93943786621094	496.1239318847656	274.9937438964844	80.90217590332031	527.7644653320312	194.1437530517578	41.91623687744141	628.8341064453125	352.2361450195312	19.94097137451172	532.5441284179688	415.0288696289062	30.15670585632324	254.3155975341797	271.2455749511719	965.4755249023438	251.3990783691406	323.0606689453125	674.541259765625	238.6049346923828	271.2693176269531	700.9534301757812	264.8403625488281	247.5927734375	600.8069458007812	270.7259521484375	310.7103576660156	595.7886962890625	282.8490295410156	268.5516967773438	514.0885009765625	390.3268127441406	273.0425415039062	501.602294921875	255.6713562011719	249.2205657958984	339.0434265136719	258.0191955566406	191.9437408447266	318.1159362792969	268.1470947265625	191.6796417236328	231.1775665283203	269.4425048828125	256.0897216796875	236.8568267822266	276.408935546875	217.1944274902344	69.16926574707031	361.0896911621094	243.5623321533203	79.45746612548828	329.2665405273438	160.9031066894531	41.08448791503906	233.6984100341797	328.0711059570312	19.2193717956543	335.6475830078125	376.678955078125	27.07938575744629	
